<?xml version="1.0" encoding="utf-8"?>
<!-- Generator: Adobe Illustrator 21.0.2, SVG Export Plug-In . SVG Version: 6.00 Build 0)  -->
<svg version="1.1"
	 id="svg1936" xmlns="http://www.w3.org/2000/svg" x="0px" y="0px" viewBox="0 0 602.3 181.5"
	 style="enable-background:new 0 0 602.3 181.5;" xml:space="preserve">
	<style type="text/css">.st1{fill:#ad974f;}</style>
	<g id="layer1" transform="translate(144.53434,-649.87719)">
		<g id="g1967" transform="translate(7.081691,7.081144)">
			<path id="path8" class="st1" d="M222,784.7c-35,25.8-85.7,39.6-129.4,39.6
				c-61.2,0-116.4-22.7-158.1-60.3c-3.3-3-0.3-7,3.6-4.7c45,26.2,100.7,41.9,158.2,41.9c38.8,0,81.4-8,120.6-24.7
				C222.9,774,227.8,780.4,222,784.7"/>
			<path id="path10" class="st1" d="M236.6,768.1c-4.5-5.7-29.6-2.7-40.8-1.4
				c-3.4,0.4-4-2.6-0.9-4.7c20-14.1,52.8-10,56.7-5.3c3.8,4.7-1,37.6-19.8,53.4c-2.9,2.4-5.6,1.1-4.4-2.1
				C231.6,797.4,241.1,773.8,236.6,768.1"/>
			<path id="path12" class="st1" d="M196.5,662.6v-13.7c0-2.1,1.6-3.5,3.5-3.5h61.3
				c2,0,3.5,1.4,3.5,3.5v11.7c0,2-1.7,4.5-4.6,8.6l-31.7,45.3c11.8-0.3,24.3,1.5,34.9,7.5c2.4,1.4,3.1,3.4,3.3,5.3V742
				c0,2-2.2,4.3-4.5,3.1c-18.8-9.9-43.9-11-64.7,0.1c-2.1,1.2-4.4-1.2-4.4-3.1v-13.9c0-2.2,0-6,2.3-9.4l36.8-52.7h-32
				C198.1,666.1,196.5,664.7,196.5,662.6"/>
			<path id="path14" class="st1" d="M-27,748h-18.6c-1.8-0.1-3.2-1.5-3.3-3.2v-95.7
				c0-1.9,1.6-3.4,3.6-3.4H-28c1.8,0.1,3.3,1.5,3.4,3.2v12.5h0.3c4.5-12.1,13.1-17.7,24.5-17.7c11.7,0,19,5.6,24.2,17.7
				c4.5-12.1,14.8-17.7,25.7-17.7c7.8,0,16.4,3.2,21.6,10.5c5.9,8,4.7,19.7,4.7,30l0,60.4c0,1.9-1.6,3.5-3.6,3.5H54.3
				c-1.9-0.1-3.4-1.6-3.4-3.5v-50.7c0-4,0.4-14.1-0.5-17.9c-1.4-6.4-5.6-8.2-11-8.2c-4.5,0-9.2,3-11.1,7.8s-1.7,12.9-1.7,18.3v50.7
				c0,1.9-1.6,3.5-3.6,3.5H4.3c-1.9-0.1-3.4-1.6-3.4-3.5l0-50.7c0-10.7,1.8-26.4-11.5-26.4c-13.4,0-12.9,15.3-12.9,26.4v50.7
				C-23.4,746.5-25,748-27,748"/>
			<path id="path16" class="st1" d="M317.5,643.7c27.7,0,42.6,23.8,42.6,54
				c0,29.2-16.5,52.3-42.6,52.3c-27.2,0-41.9-23.8-41.9-53.4C275.6,666.9,290.6,643.7,317.5,643.7 M317.7,663.2
				c-13.7,0-14.6,18.7-14.6,30.4c0,11.7-0.2,36.7,14.4,36.7c14.4,0,15.1-20.1,15.1-32.4c0-8.1-0.3-17.7-2.8-25.4
				C327.8,665.8,323.6,663.2,317.7,663.2"/>
			<path id="path18" class="st1" d="M396,748h-18.6c-1.9-0.1-3.4-1.6-3.4-3.5l0-95.7
				c0.2-1.8,1.7-3.1,3.6-3.1H395c1.6,0.1,3,1.2,3.3,2.7V663h0.3c5.2-13.1,12.5-19.3,25.4-19.3c8.4,0,16.5,3,21.8,11.3
				c4.9,7.7,4.9,20.5,4.9,29.8V745c-0.2,1.7-1.8,3-3.6,3h-18.7c-1.7-0.1-3.1-1.4-3.3-3v-52c0-10.5,1.2-25.8-11.7-25.8
				c-4.5,0-8.7,3-10.8,7.7c-2.6,5.8-3,11.7-3,18.1v51.5C399.6,746.5,398,748,396,748"/>
			<path id="path28" class="st1" fill-rule="evenodd" d="M147.7,702.3c0,7.3,0.2,13.3-3.5,19.8c-3,5.2-7.7,8.5-12.9,8.5
				c-7.2,0-11.4-5.5-11.4-13.5c0-15.9,14.2-18.8,27.7-18.8L147.7,702.3 M166.5,747.7c-1.2,1.1-3,1.2-4.4,0.4
				c-6.2-5.1-7.3-7.5-10.7-12.4c-10.2,10.4-17.5,13.6-30.7,13.6c-15.7,0-27.9-9.7-27.9-29c0-15.1,8.2-25.4,19.9-30.5
				c10.1-4.5,24.3-5.2,35.1-6.5v-2.4c0-4.4,0.3-9.7-2.3-13.5c-2.3-3.4-6.6-4.9-10.5-4.9c-7.1,0-13.4,3.6-15,11.2
				c-0.3,1.7-1.5,3.3-3.3,3.4l-18.1-1.9c-1.5-0.3-3.2-1.6-2.8-3.9c4.1-21.9,24-28.5,41.7-28.5c9.1,0,20.9,2.4,28.1,9.3
				c9.1,8.5,8.2,19.8,8.2,32.1v29c0,8.7,3.6,12.6,7,17.3c1.2,1.7,1.4,3.7-0.1,5C177,738.6,170.2,744.5,166.5,747.7L166.5,747.7"/>
			<path id="path30" class="st1" fill-rule="evenodd" d="M-96.7,702.3c0,7.3,0.2,13.3-3.5,19.8c-3,5.2-7.7,8.5-12.9,8.5
				c-7.2,0-11.3-5.5-11.3-13.5c0-15.9,14.2-18.8,27.7-18.8L-96.7,702.3 M-77.9,747.7c-1.2,1.1-3,1.2-4.4,0.4
				c-6.2-5.1-7.3-7.5-10.7-12.4c-10.2,10.4-17.5,13.6-30.7,13.6c-15.7,0-27.9-9.7-27.9-29c0-15.1,8.2-25.4,19.9-30.5
				c10.1-4.5,24.3-5.2,35.1-6.5v-2.4c0-4.4,0.3-9.7-2.3-13.5c-2.3-3.4-6.6-4.9-10.5-4.9c-7.1,0-13.4,3.6-15,11.2
				c-0.3,1.7-1.5,3.3-3.2,3.4l-18.1-1.9c-1.5-0.3-3.2-1.6-2.8-3.9c4.2-21.9,24-28.5,41.7-28.5c9.1,0,20.9,2.4,28.1,9.3
				c9.1,8.5,8.2,19.8,8.2,32.1v29c0,8.7,3.6,12.6,7,17.3c1.2,1.7,1.5,3.7-0.1,5C-67.4,738.6-74.1,744.5-77.9,747.7L-77.9,747.7"/>
		</g>
	</g>
</svg>
