<?xml version="1.0" encoding="utf-8"?>
<!-- Generator: Adobe Illustrator 21.0.2, SVG Export Plug-In . SVG Version: 6.00 Build 0)  -->
<svg version="1.1" id="Layer_1" xmlns="http://www.w3.org/2000/svg" x="0px" y="0px"
	 viewBox="0 0 300 124.7" style="enable-background:new 0 0 300 24.7;" xml:space="preserve">
	<style type="text/css">
		.st0{fill:#ad974f;}
		.st1{fill:none;}
	</style>
	<path id="Beyond_any_store_of_its_kind" class="st0" d="M12.2,108.7c1.3-0.7,2-1.7,2-2.9c0-3-3-4-6.6-4H4.3v14.7h4.6
		c3.9,0,7.1-1.2,7.1-4.1C16,110.7,14.6,109.1,12.2,108.7z M6.5,103.4h0.9c2.7,0,4.6,0.2,4.6,2.4c0,2.3-2.1,2.5-4.6,2.5H6.5V103.4z
		 M8.7,115H6.5v-5.3h1.9c2.4,0,5.3,0.3,5.3,2.6C13.7,114.5,11.1,115,8.7,115z M23,107.1c-3.9,0-6,2.2-6,4.9c0,2.6,2.4,4.7,6.1,4.7
		c2.5,0,4.5-0.9,5.7-2.6l-1.8-0.8c-0.8,1.1-2,1.9-3.7,1.9c-2.4,0-4-1.4-4-3.1h9.7C29,109.6,26.9,107.1,23,107.1z M19.2,110.9
		c0.3-1.3,2-2.4,3.8-2.4c1.8,0,3.3,1.1,3.6,2.4H19.2z M28.6,107.4l5.7,8.3l-4,6h2.4l9.1-14.3h-2.4l-4,6.6l-4.4-6.6L28.6,107.4
		 M48,107.1c-3.6,0-6.5,2.2-6.5,4.8c0,2.7,2.9,4.8,6.5,4.8s6.5-2.1,6.5-4.8C54.5,109.3,51.6,107.1,48,107.1z M48,115.3
		c-2.6,0-4.4-1.5-4.4-3.4c0-1.9,1.8-3.4,4.4-3.4s4.4,1.5,4.4,3.4C52.4,113.8,50.6,115.3,48,115.3z M58.4,108.5v-1.1h-2.1v9.2h2.1
		v-4.3c0-1.6,0.2-3.6,3.1-3.6c2.5,0,2.6,1.3,2.6,2.8v5.2h2.1v-5.4c0-2.1-0.8-4-4.2-4C60.4,107.1,59.3,107.6,58.4,108.5L58.4,108.5
		 M78.2,100.5v8.2h-0.1c-1-1-2.6-1.6-4.2-1.6c-3.7,0-5.9,2.2-5.9,4.8c0,2.5,2.3,4.8,5.9,4.8c1.7,0,3.2-0.5,4.2-1.5h0.1v1.3h2.1v-16.1
		L78.2,100.5L78.2,100.5z M74.2,115.3c-2.6,0-4.1-1.7-4.1-3.5c0-1.7,1.6-3.3,4-3.3c2.6,0,4.2,1.5,4.2,3.3
		C78.3,113.7,76.9,115.3,74.2,115.3z M99.2,107.4v1.3h-0.1c-1-1-2.5-1.6-4.2-1.6c-3.7,0-5.9,2.2-5.9,4.8c0,2.5,2.3,4.8,5.9,4.8
		c1.8,0,3.2-0.5,4.3-1.5h0.1v1.3h2.1v-9.2L99.2,107.4L99.2,107.4z M95.2,115.3c-2.6,0-4-1.7-4-3.5c0-1.7,1.6-3.3,4-3.3
		c2.6,0,4.2,1.5,4.2,3.3C99.3,113.7,97.9,115.3,95.2,115.3z M106.2,108.5v-1.1h-2.1v9.2h2.1v-4.3c0-1.6,0.2-3.6,3.1-3.6
		c2.5,0,2.6,1.3,2.6,2.8v5.2h2.1v-5.4c0-2.1-0.8-4-4.2-4C108.3,107.1,107.1,107.6,106.2,108.5L106.2,108.5 M114.8,107.4l5.7,8.3l-4,6
		h2.4l9.1-14.3h-2.4l-4,6.6l-4.4-6.6L114.8,107.4 M140.8,109.5l1.8-0.7c-0.6-1-1.9-1.7-3.3-1.7c-2,0-3.7,1-3.7,2.6
		c0,2.9,5.6,2.2,5.6,4.2c0,0.8-0.9,1.4-2,1.4c-1.4,0-2-0.6-2.5-1.5l-1.9,0.6c0.7,1.4,2.3,2.3,4.4,2.3c2.3,0,4.2-1.3,4.2-3
		c0-1.5-1.4-2.2-2.9-2.6c-1.4-0.4-2.9-0.8-2.9-1.6c0-0.6,0.8-1,1.5-1C139.9,108.6,140.5,109,140.8,109.5 M147.4,116.5v-7.7h2.2v-1.4
		h-2.2v-3.3h-2.1v3.3H144v1.4h1.3v7.7H147.4 M155.8,107.1c-3.6,0-6.5,2.2-6.5,4.8c0,2.7,2.9,4.8,6.5,4.8s6.5-2.1,6.5-4.8
		C162.3,109.3,159.4,107.1,155.8,107.1z M155.8,115.3c-2.6,0-4.4-1.5-4.4-3.4c0-1.9,1.8-3.4,4.4-3.4c2.6,0,4.4,1.5,4.4,3.4
		C160.2,113.8,158.4,115.3,155.8,115.3z M166,108.4v-1h-2.1v9.2h2.1v-4.6c0-1.2,0.1-3.4,2.4-3.4c0.6,0,0.8,0.2,1.3,0.4l1-1.4
		c-0.6-0.3-1.2-0.4-1.9-0.4C167.5,107.1,166.8,107.6,166,108.4L166,108.4 M176.7,107.1c-3.9,0-6,2.2-6,4.9c0,2.6,2.3,4.7,6,4.7
		c2.5,0,4.5-0.9,5.7-2.6l-1.8-0.8c-0.8,1.1-2,1.9-3.7,1.9c-2.4,0-4-1.4-4.1-3.1h9.7C182.7,109.6,180.6,107.1,176.7,107.1z
		 M172.9,110.9c0.3-1.3,1.9-2.4,3.7-2.4c1.8,0,3.4,1.1,3.6,2.4H172.9z M196.7,107.1c-3.6,0-6.5,2.2-6.5,4.8c0,2.7,2.9,4.8,6.5,4.8
		s6.5-2.1,6.5-4.8C203.1,109.3,200.3,107.1,196.7,107.1z M196.7,115.3c-2.6,0-4.4-1.5-4.4-3.4c0-1.9,1.8-3.4,4.4-3.4
		c2.6,0,4.4,1.5,4.4,3.4C201,113.8,199.3,115.3,196.7,115.3z M207.2,116.5v-7.7h3.1v-1.4h-3.1v-3.1c0-1.6,0-2.5,1.7-2.5
		c0.5,0,0.9,0.1,1.4,0.2v-1.6c-0.5-0.1-1-0.2-1.5-0.2c-1.3,0-2.5,0.3-3.2,1.1c-0.6,0.7-0.6,1.6-0.6,2.4v3.6H204v1.4h1.1v7.7
		L207.2,116.5 M218.4,107.4h2.1v9.2h-2.1V107.4 M220.9,103.9c0,0.6-0.7,1.1-1.5,1.1c-0.8,0-1.5-0.5-1.5-1.1c0-0.6,0.7-1.1,1.5-1.1
		C220.3,102.8,220.9,103.3,220.9,103.9z M226,116.5v-7.7h2.2v-1.4H226v-3.3h-2.1v3.3h-1.3v1.4h1.3v7.7H226 M234,109.5l1.8-0.7
		c-0.6-1-1.9-1.7-3.3-1.7c-2,0-3.7,1-3.7,2.6c0,2.9,5.6,2.2,5.6,4.2c0,0.8-0.9,1.4-2,1.4c-1.4,0-2-0.6-2.5-1.5l-1.9,0.6
		c0.6,1.4,2.3,2.3,4.4,2.3c2.3,0,4.2-1.3,4.2-3c0-1.5-1.4-2.2-2.9-2.6c-1.4-0.4-2.9-0.8-2.9-1.6c0-0.6,0.8-1,1.5-1
		C233,108.6,233.7,109,234,109.5 M247.3,110.8v-10.3h-2.1v16.1h2.1v-3.8l0.6-0.4l5,4.2h2.8l-6.3-5.3l5.3-3.9h-2.8L247.3,110.8
		 M257,107.4h2.1v9.2H257V107.4 M259.5,103.9c0,0.6-0.7,1.1-1.5,1.1c-0.8,0-1.5-0.5-1.5-1.1c0-0.6,0.7-1.1,1.5-1.1
		C258.9,102.8,259.5,103.3,259.5,103.9z M264.5,108.5v-1.1h-2.1v9.2h2.1v-4.3c0-1.6,0.2-3.6,3.1-3.6c2.5,0,2.6,1.3,2.6,2.8v5.2h2.1
		v-5.4c0-2.1-0.8-4-4.2-4C266.5,107.1,265.4,107.6,264.5,108.5L264.5,108.5 M284.3,100.5v8.2h0c-1-1-2.6-1.6-4.2-1.6
		c-3.7,0-5.9,2.2-5.9,4.8c0,2.5,2.3,4.8,5.9,4.8c1.7,0,3.2-0.5,4.3-1.5h0v1.3h2.1v-16.1L284.3,100.5L284.3,100.5z M280.3,115.3
		c-2.6,0-4.1-1.7-4.1-3.5c0-1.7,1.6-3.3,4-3.3c2.6,0,4.2,1.5,4.2,3.3C284.4,113.7,283,115.3,280.3,115.3z M292.7,115.7
		c0-0.6-0.7-1.1-1.5-1.1c-0.8,0-1.5,0.5-1.5,1.1c0,0.6,0.7,1.1,1.5,1.1C292,116.8,292.7,116.3,292.7,115.7 M292.3,94.6
		c-2.4,0-4.3,1.9-4.3,4.3c0,2.4,1.9,4.3,4.3,4.3c2.4,0,4.3-1.9,4.3-4.3C296.6,96.5,294.7,94.6,292.3,94.6z M292.3,102.5
		c-2,0-3.7-1.6-3.7-3.6c0-2,1.7-3.6,3.7-3.6s3.7,1.6,3.7,3.6C296,100.9,294.3,102.5,292.3,102.5z M294.4,97.8c0-1-0.8-1.2-1.7-1.2h-2
		v4.7h0.7v-2.2h0.8l1.4,2.2h0.8l-1.4-2.2C293.8,99.1,294.4,98.7,294.4,97.8z M292.2,98.4h-0.8v-1.2h1.2c0.5,0,1.1,0.1,1.1,0.6
		C293.7,98.5,292.7,98.4,292.2,98.4z"/>
	<path id="Bed_Bath__x26__Beyond" class="st0" d="M4.7,59.2h15.8c7.2,0,14.6,1.6,14.6,9.4c0,3-1.6,5.9-4.9,6.8v0.3c4,1.3,6.6,4,6.6,8
		c0,7-7.1,9.3-13.6,9.3H4.7V59.2 M18.5,72.2c2,0,4.2-0.2,4.2-2.5c0-2.5-2.5-2.3-4.5-2.3h-0.9v4.9H18.5z M17.2,85h1.5
		c2.2,0,5.4,0,5.4-2.8c0-2.8-3.4-2.8-5.6-2.8h-1.3V85z M38.9,59.2v33.9h27.8v-9.2H53.8v-3.3h11.4v-8.8H53.8v-3.2h12.5v-9.2L38.9,59.2
		 M85.4,59.2H66.6l15.9,19.3v14.6h16.3V78.5l15.6-19.3H95.8l-3.3,5.7c-0.6,1-1,2.1-1.5,3.2h-0.5L85.4,59.2 M161.5,76.2
		c0,10.9-12.2,17.4-27.2,17.4c-15,0-27.2-6.5-27.2-17.4c0-10.7,12.2-17.6,27.2-17.6C149.2,58.7,161.5,65.6,161.5,76.2 M125.1,76.4
		c0,3.9,3.8,6.5,9.2,6.5c5.4,0,9.2-2.6,9.2-6.5c0-3.6-3.5-6.6-9.2-6.6S125.1,72.8,125.1,76.4z M219.3,59.2h28.2
		c25.6,0,45.2,5,45.2,17.4c0,10.1-16,16.4-38.3,16.4h-35L219.3,59.2 M247,82.9h1.7c9.2,0,16.3-1.9,16.3-6.3c0-4.8-6.2-6.8-16.3-6.8
		H247V82.9z M286.7,59.6c0-2.5,2-4.5,4.5-4.5c2.5,0,4.5,2,4.5,4.5c0,2.5-2,4.5-4.5,4.5C288.7,64.1,286.7,62.1,286.7,59.6 M295,59.6
		c0-2.1-1.8-3.8-3.8-3.8c-2.1,0-3.8,1.7-3.8,3.8c0,2.1,1.8,3.8,3.8,3.8C293.3,63.4,295,61.7,295,59.6z M293.4,62h-0.8l-1.5-2.3h-0.8
		V62h-0.7v-4.9h2.2c0.9,0,1.8,0.2,1.8,1.3c0,1-0.7,1.3-1.5,1.4L293.4,62z M291,59c0.6,0,1.7,0.1,1.7-0.7c0-0.5-0.7-0.6-1.2-0.6h-1.3
		V59L291,59L291,59z M182,59.2h-18.3v33.9h18.2V75.9l16.2,17.2h18.2V59.2h-18.2v17.5L182,59.2 M4.6,4.7h5.5c8.4,0,16.4,2.2,16.4,12.3
		c0,3.3-1.8,7.1-4.8,8.5v0.1c5.3,1,9,6.1,9,11.4c0,9-7.7,12.5-15.6,12.5H4.6V4.7 M10.2,24.6h1.4c5.3,0,9.6-1.1,9.6-7.5
		c0-6.3-4.3-7.4-9.5-7.4h-1.5C10.2,9.7,10.2,24.6,10.2,24.6z M10.2,44.6h4.3c5.2,0,10.6-1.5,10.6-7.9c0-6.3-6.4-7.6-11.4-7.6h-3.4
		C10.2,29,10.2,44.6,10.2,44.6z M33.9,4.7v44.8H58v-5.1H39.5V27.5h18v-5.1h-18V9.8H58V4.7H33.9 M63.2,4.7h9.3
		c13.7,0,25.2,7.3,25.2,22.2c0,15.3-11.2,22.6-25.3,22.6h-9.1L63.2,4.7 M68.8,44.4h2c11.4,0,21.3-4.3,21.3-17.3
		c0-13.1-9.9-17.3-21.3-17.3h-2C68.8,9.8,68.8,44.4,68.8,44.4z M113.4,4.7h5.5c8.5,0,16.4,2.2,16.4,12.3c0,3.3-1.8,7.1-4.8,8.5v0.1
		c5.3,1,9,6.1,9,11.4c0,9-7.7,12.5-15.6,12.5h-10.5V4.7 M119,24.6h1.4c5.3,0,9.6-1.1,9.6-7.5c0-6.3-4.3-7.4-9.5-7.4H119L119,24.6
		L119,24.6z M119,44.6h4.3c5.2,0,10.6-1.5,10.6-7.9c0-6.3-6.4-7.6-11.4-7.6H119C119,29,119,44.6,119,44.6z M150.2,38.3l-5.1,11.2h-6
		l21.4-46.7l21.4,46.7h-6l-5.1-11.2L150.2,38.3 M160.5,15.1l-8,18.1h16L160.5,15.1z M191.8,49.6V9.8h10.6V4.7h-26.9v5.1h10.6v39.7
		H191.8 M232.4,22.8h-21.3V4.7h-5.6v44.8h5.6V28h21.3v21.5h5.6V4.7h-5.6V22.8 M279.8,43.5c-3.4,4-8.1,7-13.4,7
		c-7.5,0-13.7-5.5-13.7-13.2c0-5.7,3.6-8.8,7.8-11.9l2.8-2c-2.5-2.7-4.9-6-4.9-9.8c0-6.2,4.5-9.8,10.3-9.8c5.5,0,10.3,3.4,10.3,9.3
		c0,5.1-4.4,8.4-8.2,11.2l9.4,11.3l5.2-6.1l3.6,3.7l-5.5,6.4l8,9.9h-6.9L279.8,43.5 M266,27.8c-3.1,2.1-8.2,5.2-8.2,9.4
		c0,4.3,4,8.3,8.3,8.3c4.2,0,7.5-3.2,10.3-6l-9.9-12.1L266,27.8z M268.4,19.9c2.3-1.8,5.4-3.6,5.4-6.9c0-3.1-2.3-4.9-5.2-4.9
		c-2.7,0-5,1.9-5,4.8c0,2.3,1.4,3.9,2.7,5.6l1.5,1.9L268.4,19.9z"/>
</svg>
